<svg id="visual" viewBox="0 0 960 150" width="960" height="150"
  xmlns="http://www.w3.org/2000/svg"
  xmlns:xlink="http://www.w3.org/1999/xlink" version="1.1">
  <path d="M0 38L107 50L213 71L320 55L427 17L533 88L640 87L747 102L853 54L960 13L960 151L853 151L747 151L640 151L533 151L427 151L320 151L213 151L107 151L0 151Z" fill="#fe8e20"></path>
  <path d="M0 103L107 54L213 68L320 74L427 46L533 114L640 59L747 109L853 75L960 89L960 151L853 151L747 151L640 151L533 151L427 151L320 151L213 151L107 151L0 151Z" fill="#af9200"></path>
  <path d="M0 94L107 100L213 77L320 68L427 97L533 73L640 101L747 125L853 125L960 90L960 151L853 151L747 151L640 151L533 151L427 151L320 151L213 151L107 151L0 151Z" fill="#668913"></path>
  <path d="M0 137L107 106L213 141L320 112L427 131L533 101L640 137L747 129L853 121L960 135L960 151L853 151L747 151L640 151L533 151L427 151L320 151L213 151L107 151L0 151Z" fill="#007932"></path>
</svg>
