<svg id="visual" viewBox="0 0 960 70" width="960" height="70"
  xmlns="http://www.w3.org/2000/svg"
  xmlns:xlink="http://www.w3.org/1999/xlink" version="1.1">
  <path d="M0 34L22.8 36.2C45.7 38.3 91.3 42.7 137 45.2C182.7 47.7 228.3 48.3 274 46C319.7 43.7 365.3 38.3 411.2 32.7C457 27 503 21 548.8 21C594.7 21 640.3 27 686 27.2C731.7 27.3 777.3 21.7 823 19C868.7 16.3 914.3 16.7 937.2 16.8L960 17L960 0L937.2 0C914.3 0 868.7 0 823 0C777.3 0 731.7 0 686 0C640.3 0 594.7 0 548.8 0C503 0 457 0 411.2 0C365.3 0 319.7 0 274 0C228.3 0 182.7 0 137 0C91.3 0 45.7 0 22.8 0L0 0Z" fill="#007932" stroke-linecap="round" stroke-linejoin="miter"></path>
</svg>
